<svg width="16" height="27" viewBox="0 0 16 27" fill="none" xmlns="http://www.w3.org/2000/svg">
<path d="M5.61598 13.644C6.52798 13.236 7.37998 12.84 8.17198 12.456C8.98798 12.048 9.70798 11.592 10.332 11.088C10.956 10.56 11.436 9.948 11.772 9.25201C12.108 8.532 12.276 7.668 12.276 6.66C12.276 5.70001 12.072 4.872 11.664 4.176C11.28 3.48 10.728 2.952 10.008 2.59201C9.31198 2.208 8.47198 2.016 7.48798 2.016C6.57598 2.016 5.74798 2.16 5.00398 2.448C4.28398 2.736 3.65998 3.12 3.13198 3.6C2.60398 4.056 2.15998 4.56 1.79998 5.112C1.79998 4.776 1.82398 4.47601 1.87198 4.21201C1.94398 3.948 2.02798 3.708 2.12398 3.492C2.24398 3.276 2.38798 3.108 2.55598 2.988C2.72398 2.844 2.92798 2.748 3.16798 2.7V6.624H-2.32905e-05V3.276C0.359977 2.79601 0.899977 2.30401 1.61998 1.8C2.36398 1.272 3.23998 0.840004 4.24798 0.504004C5.25598 0.168004 6.37198 4.05312e-06 7.59598 4.05312e-06C9.22798 4.05312e-06 10.632 0.276004 11.808 0.828004C13.008 1.38 13.932 2.16 14.58 3.168C15.252 4.176 15.588 5.34 15.588 6.66C15.588 7.788 15.372 8.784 14.94 9.648C14.508 10.488 13.92 11.244 13.176 11.916C12.456 12.564 11.652 13.128 10.764 13.608C9.87598 14.064 8.99998 14.472 8.13598 14.832V19.008H5.61598V13.644ZM6.87598 26.964C7.59598 26.964 8.17198 26.76 8.60398 26.352C9.05998 25.92 9.28798 25.38 9.28798 24.732C9.28798 24.036 9.05998 23.484 8.60398 23.076C8.17198 22.668 7.59598 22.464 6.87598 22.464C6.15598 22.464 5.56798 22.668 5.11198 23.076C4.67998 23.484 4.46398 24.036 4.46398 24.732C4.46398 25.38 4.67998 25.92 5.11198 26.352C5.56798 26.76 6.15598 26.964 6.87598 26.964Z" fill="black"/>
</svg>
