<svg width="45" height="45" viewBox="0 0 45 45" fill="none" xmlns="http://www.w3.org/2000/svg">
<path d="M22.5 4.21875C18.2318 4.21875 14.6448 6.98181 13.1836 10.7227L15.7764 11.7773C16.842 9.04724 19.4568 7.03125 22.5 7.03125C26.3727 7.03125 29.5312 10.1898 29.5312 14.0625V15.9961C27.4548 14.7876 25.0653 14.0625 22.5 14.0625C14.7491 14.0625 8.4375 20.3741 8.4375 28.125C8.4375 35.8759 14.7491 42.1875 22.5 42.1875C30.2509 42.1875 36.5625 35.8759 36.5625 28.125C36.5625 24.2084 34.942 20.6598 32.3438 18.1055V14.0625C32.3438 8.65723 27.9053 4.21875 22.5 4.21875ZM22.5 16.875C28.7292 16.875 33.75 21.8958 33.75 28.125C33.75 34.3542 28.7292 39.375 22.5 39.375C16.2708 39.375 11.25 34.3542 11.25 28.125C11.25 21.8958 16.2708 16.875 22.5 16.875ZM22.5 25.3125C20.9454 25.3125 19.6875 26.5704 19.6875 28.125C19.6875 29.1632 20.2533 30.0531 21.0938 30.542V35.1562H23.9062V30.542C24.7467 30.0531 25.3125 29.1632 25.3125 28.125C25.3125 26.5704 24.0546 25.3125 22.5 25.3125Z" fill="black"/>
</svg>
