<svg width="40" height="40" viewBox="0 0 40 40" fill="none" xmlns="http://www.w3.org/2000/svg">
<path d="M20 6.25C15.1807 6.25 11.25 10.1807 11.25 15C11.25 18.0127 12.7881 20.6885 15.1172 22.2656C10.6592 24.1797 7.5 28.6035 7.5 33.75H10C10 28.2129 14.4629 23.75 20 23.75C25.5371 23.75 30 28.2129 30 33.75H32.5C32.5 28.6035 29.3408 24.1797 24.8828 22.2656C27.2119 20.6885 28.75 18.0127 28.75 15C28.75 10.1807 24.8193 6.25 20 6.25ZM20 8.75C23.4668 8.75 26.25 11.5332 26.25 15C26.25 18.4668 23.4668 21.25 20 21.25C16.5332 21.25 13.75 18.4668 13.75 15C13.75 11.5332 16.5332 8.75 20 8.75Z" fill="black"/>
</svg>
