<svg width="104" height="104" viewBox="0 0 104 104" fill="none" xmlns="http://www.w3.org/2000/svg">
<path d="M52 9.75C28.7041 9.75 9.75 28.7041 9.75 52C9.75 75.2959 28.7041 94.25 52 94.25C75.2959 94.25 94.25 75.2959 94.25 52C94.25 28.7041 75.2959 9.75 52 9.75ZM52 16.25C71.7793 16.25 87.75 32.2207 87.75 52C87.75 71.7793 71.7793 87.75 52 87.75C32.2207 87.75 16.25 71.7793 16.25 52C16.25 32.2207 32.2207 16.25 52 16.25ZM52 26C43.0625 26 35.75 33.3125 35.75 42.25C35.75 47.1758 38.0479 51.5557 41.5391 54.5391C34.2266 58.335 29.25 65.9775 29.25 74.75H35.75C35.75 65.7363 42.9863 58.5 52 58.5C61.0137 58.5 68.25 65.7363 68.25 74.75H74.75C74.75 65.9775 69.7734 58.335 62.4609 54.5391C65.9521 51.5557 68.25 47.1758 68.25 42.25C68.25 33.3125 60.9375 26 52 26ZM52 32.5C57.4209 32.5 61.75 36.8291 61.75 42.25C61.75 47.6709 57.4209 52 52 52C46.5791 52 42.25 47.6709 42.25 42.25C42.25 36.8291 46.5791 32.5 52 32.5Z" fill="black"/>
</svg>
